<svg width="180" height="168" viewBox="0 0 180 168" fill="none" xmlns="http://www.w3.org/2000/svg">
  <path d="M0 0H34C51.6731 0 66 14.3269 66 32V136C66 153.673 51.6731 168 34 168H0V0Z" fill="#2F67E7"/>
  <path d="M76 0H104C145.974 0 180 34.0264 180 76V92H152C110.026 92 76 57.9736 76 16V0Z" fill="#2F67E7"/>
  <path d="M76 84H100C117.673 84 132 98.3269 132 116C132 133.673 117.673 148 100 148H76V84Z" fill="#111111"/>
  <path d="M180 92H152C110.026 92 76 126.026 76 168H104C145.974 168 180 133.974 180 92Z" fill="#111111"/>
</svg>
